<svg xmlns="http://www.w3.org/2000/svg" viewBox="0 0 64 64">
  <defs>
    <linearGradient id="g" x1="0%" y1="0%" x2="100%" y2="100%">
      <stop offset="0%" stop-color="#1554f6" />
      <stop offset="100%" stop-color="#22c55e" />
    </linearGradient>
  </defs>
  <rect width="64" height="64" rx="14" fill="url(#g)" />
  <path
    d="M18 33c0-7.5 5.8-13.6 13-13.6 4.7 0 9 2.5 11.4 6.6l-5.5 2.9c-1.1-2.1-3.3-3.4-5.9-3.4-3.7 0-6.8 3.1-6.8 7.5 0 4.5 3.1 7.6 6.8 7.6 2.7 0 4.9-1.3 6-3.5l5.5 2.8C40 43.8 35.7 46.5 31 46.5 23.8 46.6 18 40.5 18 33z"
    fill="#fff"
  />
</svg>
